<svg height="512" viewBox="0 0 128 128" width="512" xmlns="http://www.w3.org/2000/svg" data-name="Layer 2">
    <path d="m64 79.246-14.625-7.983v-14.625l14.625 7.983z" fill="#d13d83"/>
    <path d="m64 79.246 14.625-7.983v-14.625l-14.625 7.983z" fill="#284cb2"/>
    <path d="m49.375 56.638 14.625-8.376 14.625 8.376-14.625 7.983z" fill="#69d6cd"/>
    <path d="m18.274 52.458-14.625-7.983v-14.625l14.625 7.983z" fill="#d13d83"/>
    <path d="m18.274 52.458 14.625-7.983v-14.625l-14.625 7.983z" fill="#284cb2"/>
    <path d="m3.649 29.85 14.625-8.376 14.625 8.376-14.625 7.983z" fill="#69d6cd"/>
    <path d="m18.274 105.537-14.625-7.983v-14.625l14.625 7.983z" fill="#d13d83"/>
    <path d="m18.274 105.537 14.625-7.983v-14.625l-14.625 7.983z" fill="#284cb2"/>
    <path d="m3.649 82.929 14.625-8.376 14.625 8.376-14.625 7.983z" fill="#69d6cd"/>
    <path d="m109.726 52.458-14.625-7.983v-14.625l14.625 7.983z" fill="#d13d83"/>
    <path d="m109.726 52.458 14.625-7.983v-14.625l-14.625 7.983z" fill="#284cb2"/>
    <path d="m95.101 29.85 14.625-8.376 14.625 8.376-14.625 7.983z" fill="#69d6cd"/>
    <path d="m109.726 105.537-14.625-7.983v-14.625l14.625 7.983z" fill="#d13d83"/>
    <path d="m109.726 105.537 14.625-7.983v-14.625l-14.625 7.983z" fill="#284cb2"/>
    <path d="m95.101 82.929 14.625-8.376 14.625 8.376-14.625 7.983z" fill="#69d6cd"/>
    <path d="m64 32.983-14.625-7.984v-14.625l14.625 7.984z" fill="#d13d83"/>
    <path d="m64 32.983 14.625-7.984v-14.625l-14.625 7.984z" fill="#284cb2"/>
    <path d="m49.375 10.374 14.625-8.376 14.625 8.376-14.625 7.984z" fill="#69d6cd"/>
    <path d="m64 126.25-14.625-7.984v-14.625l14.625 7.984z" fill="#d13d83"/>
    <path d="m64 126.25 14.625-7.984v-14.625l-14.625 7.984z" fill="#284cb2"/>
    <path d="m49.375 103.641 14.625-8.376 14.625 8.376-14.625 7.984z" fill="#69d6cd"/>
    <path d="m125.19 46.011a1.75 1.75 0 0 0 .911-1.536v-14.625a1.771 1.771 0 0 0 -2.589-1.536l-13.786 7.525-10.592-5.782-.448-.245 11.91-6.82a1.75 1.75 0 1 0 -1.74-3.037l-14.625 8.376a1.8 1.8 0 0 0 -.88 1.519v3.565l-13.012-8.149a1.713 1.713 0 0 0 .036-.266v-14.626a1.793 1.793 0 0 0 -.88-1.519l-14.625-8.376a1.751 1.751 0 0 0 -1.74 0l-14.63 8.376a1.793 1.793 0 0 0 -.88 1.519v14.626a1.713 1.713 0 0 0 .036.267l-13.008 8.147v-3.564a1.79 1.79 0 0 0 -.88-1.519l-14.624-8.376a1.751 1.751 0 0 0 -1.74 0l-14.626 8.376a1.8 1.8 0 0 0 -.878 1.519v14.625a1.75 1.75 0 0 0 .911 1.536l13.712 7.489v20.038l-13.745 7.872a1.792 1.792 0 0 0 -.88 1.519v5.4a1.75 1.75 0 0 0 3.5 0v-2.451l11.125 6.073v10.637l-12.036-6.57a1.75 1.75 0 1 0 -1.677 3.072l14.625 7.983a1.778 1.778 0 0 0 1.678 0l12.418-6.779 16.1 10.719v7.253a1.75 1.75 0 0 0 .911 1.536l14.625 7.983a1.778 1.778 0 0 0 1.678 0l14.619-7.985a1.75 1.75 0 0 0 .911-1.536v-7.253l16.1-10.719 12.418 6.779a1.778 1.778 0 0 0 1.678 0l14.619-7.981a1.75 1.75 0 0 0 .911-1.536v-14.625a1.8 1.8 0 0 0 -.88-1.519l-13.745-7.872v-20.038zm-50.6 57.838-10.59 5.782-10.592-5.782-.448-.245 11.04-6.322 11.04 6.318zm-67.357-20.957 11.04-6.322 11.04 6.322-.448.245-10.592 5.781-10.592-5.782zm23.915-39.455-11.125 6.072v-10.637l11.125-6.072zm1.6 37.391-12.728-7.29v-20.038l11.594-6.329 16.011 10.416v12.768zm18.377-56.867v-10.637l11.125 6.076v10.634zm25.75 0-11.125 6.073v-10.634l11.125-6.074zm-12.875 26.317 11.04 6.322-.448.245-10.592 5.782-10.592-5.782-.448-.245zm-12.875 9.309 11.125 6.073v10.64l-11.125-6.075zm14.625 6.073 11.125-6.073v10.638l-11.125 6.075zm14.625-8.073 16.008-10.419 11.594 6.332v20.038l-12.728 7.29-14.874-10.473zm27.6-18.715v10.637l-11.123-6.072v-10.637zm-11.123 57.644v-10.638l11.125 6.073v10.637zm23.467-13.38-10.592 5.782-10.593-5.782-.448-.245 11.04-6.322 11.04 6.322zm-8.842-33.627v-10.637l11.123-6.072v10.637zm-18.064-4.585-14.846 9.663-12.817-7.34v-13.225l11.74-6.41 15.861 9.932v6.93a1.746 1.746 0 0 0 .062.45zm-29.413-40.909 11.039 6.323-10.555 5.762-.484.264-.484-.264-10.555-5.763zm-13.49 23.6 11.74 6.41v13.222l-12.817 7.34-14.846-9.663a1.746 1.746 0 0 0 .061-.45v-6.93zm-32.237-4.125 11.04 6.322-.448.245-10.592 5.782-10.592-5.782-.448-.245zm-12.873 9.31 11.125 6.073v10.636l-11.125-6.072zm14.623 59.151 11.125-6.073v10.638l-11.125 6.072zm14.528 6.149a1.733 1.733 0 0 0 .1-.547v-13.78l14.841-10.452 12.758 6.964v13.966l-13.75 7.872a1.8 1.8 0 0 0 -.88 1.519v3.166zm16.574 11.967v-3.477l11.125 6.073v10.637l-11.125-6.072zm14.625 13.233v-10.636l11.125-6.073v10.638zm14.625-19.659a1.79 1.79 0 0 0 -.88-1.519l-13.745-7.871v-13.966l12.758-6.964 14.844 10.452v13.781a1.733 1.733 0 0 0 .1.547l-13.074 8.707zm31.1-1.054v-10.636l11.125-6.073v10.638z"/>
    <path d="m115.171 26.608 2 1.143a1.75 1.75 0 1 0 1.74-3.037l-2-1.143a1.75 1.75 0 1 0 -1.74 3.037z"/>
</svg>
