<svg fill="#51DED2" enable-background="new 0 0 235.067 235.067" height="512" viewBox="0 0 235.067 235.067" width="512"
     xmlns="http://www.w3.org/2000/svg">
    <path d="m231.154 213.52h-31.342v-11.753h-7.836-57.188c-.427.478-.897.901-1.34 1.363-.756.799-1.52 1.591-2.311 2.359-.819.791-1.669 1.548-2.527 2.296-.795.693-1.591 1.387-2.413 2.049-.913.729-1.849 1.41-2.793 2.088-.752.541-1.504 1.081-2.276 1.598h-17.258c1.32-.486 2.637-.991 3.926-1.567 11.146-4.987 20.792-13.34 27.342-23.636 6.997-10.993 10.335-23.953 9.65-36.937l-.02-.317c-.705-12.098-5.007-23.914-12.239-33.646-7.068-9.516-16.89-16.96-27.965-21.18-6.938-2.652-14.433-4.169-22.288-4.169-34.563 0-62.685 28.122-62.685 62.685 0 26.962 17.144 49.936 41.078 58.767h-56.751c-2.163 0-3.918 1.751-3.918 3.918s1.755 3.918 3.918 3.918h227.232c2.163 0 3.918-1.751 3.918-3.918s-1.752-3.918-3.914-3.918zm-101.863-58.767c0-2.167 1.755-3.918 3.918-3.918s3.918 1.751 3.918 3.918c0 30.245-24.604 54.849-54.849 54.849-2.163 0-3.918-1.751-3.918-3.918s1.755-3.918 3.918-3.918c25.92 0 47.013-21.089 47.013-47.013zm-94.027 0c0 2.167-1.755 3.918-3.918 3.918s-3.918-1.751-3.918-3.918c0-30.245 24.604-54.849 54.849-54.849 2.163 0 3.918 1.751 3.918 3.918s-1.755 3.918-3.918 3.918c-25.924-.001-47.013 21.089-47.013 47.013zm23.887 9.528c-.944-1.998.388-4.157 1.324-6.029.862-1.72 1.72-3.44 2.582-5.16 2.386-4.776 4.776-9.552 7.166-14.327 2.167-4.337 4.337-8.674 6.504-13.011.682-1.363 1.367-2.731 2.045-4.094 1.328-2.656 5.681-2.656 7.009 0 1.136 2.272 2.272 4.545 3.408 6.817 2.429 4.858 4.862 9.72 7.291 14.582 2.261 4.521 4.521 9.038 6.778 13.559.874 1.747 2.315 3.781 2.468 5.712.165 2.049-1.501 3.546-2.711 4.999-1.391 1.669-2.786 3.342-4.176 5.011-3.318 3.984-6.637 7.969-9.959 11.949-1.199 1.438-2.394 2.876-3.593 4.313-.744.893-1.849 1.406-3.013 1.406s-2.264-.517-3.009-1.406l-19.589-23.507c-.22-.266-.392-.536-.525-.814z"/>
    <path d="m199.811 107.739h-7.836-57.192c.357.4.682.827 1.026 1.234.501.584.999 1.171 1.481 1.775.842 1.058 1.649 2.147 2.433 3.252.752 1.058 1.465 2.139 2.159 3.236.552.878 1.101 1.755 1.614 2.652.521.913 1.019 1.841 1.501 2.782.129.251.278.494.404.744h46.575 7.836v-15.675z"/>
    <path d="m199.811 60.726h-7.835-70.521v15.671h70.521 7.835z"/>
    <path d="m199.811 170.424v-15.671h-7.836-39.178c0 2.566-.157 5.093-.423 7.585-.078.725-.231 1.434-.329 2.155-.247 1.779-.513 3.546-.893 5.277-.047.215-.063.439-.11.654h40.937z"/>
    <path d="m83.731 151.113 10.022 4.008-11.475-22.95-11.475 22.95 10.022-4.008c.931-.372 1.974-.372 2.906 0z"/>
    <path d="m95.402 164.222-13.124-5.25-13.125 5.25 13.125 15.753z"/>
    <path d="m151.701 142.788c.027.161.047.325.074.486.2 1.211.419 2.413.56 3.644h35.722v-15.671h-39.339c.086.251.161.509.243.764 1.192 3.478 2.105 7.074 2.74 10.777z"/>
    <path d="m114.591 92.166c4.231 2.167 8.27 4.752 11.965 7.738h61.498v-15.672h-70.52-7.836v5.552c1.066.451 2.08 1.003 3.119 1.504.599.286 1.187.576 1.774.878z"/>
    <path d="m199.811 29.383v-15.671h-78.356v15.671h70.521z"/>
    <path d="m188.058 52.89v-15.671h-70.52-7.836v15.671h7.836z"/>
    <path d="m143.979 188.822c-.964 1.736-1.975 3.452-3.091 5.109h47.17v-15.671h-39.284c-1.168 3.303-2.605 6.488-4.251 9.567-.18.333-.36.666-.544.995z"/>
</svg>
