<svg fill="#51DED2" enable-background="new 0 0 219.402 219.402" height="512" viewBox="0 0 219.402 219.402" width="512"
     xmlns="http://www.w3.org/2000/svg">
    <path d="m163.774 95.05c-1.865-.329-3.659-.572-5.407-.74-1.837-.165-3.687-.282-5.567-.282-13.771 0-27.323 4.623-38.226 13.034-10.727 8.278-18.641 19.992-22.233 33.066-4.286 15.608-2.217 32.667 5.622 46.825 10.339 18.668 30.821 31.323 52.146 32.377 18.848.932 37.485-7.232 49.873-21.395 9.936-11.358 15.499-26.132 15.499-41.223 0-30.818-22.37-56.448-51.707-61.662zm-57.991 61.662c0 2.167-1.755 3.918-3.918 3.918s-3.918-1.751-3.918-3.918c0-30.245 24.604-54.849 54.849-54.849 2.163 0 3.918 1.751 3.918 3.918s-1.755 3.918-3.918 3.918c-25.923-.001-47.013 21.085-47.013 47.013zm23.57 8.164c-.035-.419-.012-.846.082-1.273.298-1.34 1.226-2.735 1.841-3.957.878-1.755 1.755-3.51 2.629-5.262 1.124-2.245 2.245-4.49 3.369-6.735 1.215-2.429 2.429-4.862 3.647-7.295 1.156-2.311 2.311-4.623 3.467-6.938.944-1.888 1.888-3.777 2.833-5.665.58-1.16 1.16-2.319 1.74-3.479.11-.219.219-.439.325-.658 1.328-2.656 5.681-2.656 7.009 0 .286.568.568 1.136.85 1.704.748 1.493 1.493 2.985 2.241 4.482 1.054 2.108 2.112 4.216 3.166 6.323 1.207 2.413 2.413 4.827 3.616 7.236 1.203 2.406 2.406 4.811 3.608 7.217 1.046 2.088 2.088 4.176 3.134 6.265.729 1.461 1.461 2.919 2.19 4.38.744 1.489 1.571 3.009.921 4.713-.49 1.289-1.634 2.319-2.511 3.373-.693.831-1.383 1.661-2.076 2.488-1.779 2.135-3.561 4.274-5.34 6.41-1.83 2.198-3.663 4.396-5.493 6.59-1.305 1.567-2.613 3.134-3.918 4.701-.294.353-.588.709-.885 1.062-.744.893-1.849 1.406-3.013 1.406s-2.264-.517-3.009-1.406c-.513-.615-1.026-1.23-1.536-1.845-1.269-1.524-2.539-3.048-3.812-4.572-1.634-1.959-3.264-3.914-4.897-5.873-1.595-1.916-3.193-3.832-4.788-5.747-1.164-1.399-2.331-2.797-3.495-4.192-.298-.357-.588-.713-.889-1.066-.572-.686-.924-1.513-1.006-2.387zm23.444 46.685c-2.163 0-3.918-1.751-3.918-3.918s1.755-3.918 3.918-3.918c25.924 0 47.013-21.089 47.013-47.013 0-2.167 1.755-3.918 3.918-3.918s3.918 1.751 3.918 3.918c0 30.241-24.604 54.849-54.849 54.849z"/>
    <path d="m109.513 212.266c-.321-.247-.682-.458-.995-.709h-88.93v7.836h101.048c-3.942-2.03-7.652-4.42-11.123-7.127z"/>
    <path d="m152.797 160.931-13.125 5.25 13.125 15.749 13.124-15.749z"/>
    <path d="m151.343 153.072c.932-.376 1.975-.376 2.911 0l10.022 4.008-11.475-22.95-11.475 22.95z"/>
    <path d="m153.576 27.425-28.204-23.076v23.076z"/>
    <path d="m100.267 203.725c-11.366-12.678-17.916-29.713-17.99-46.743 0-.09 0-.18 0-.27 0-38.884 31.636-70.52 70.52-70.52 1.924 0 3.883.118 5.865.298.658.055 1.316.094 1.971.165v-51.395h-39.178c-2.163 0-3.918-1.751-3.918-3.918v-31.342h-113.616v203.725h11.753zm25.105-148.876h7.836c2.163 0 3.918 1.751 3.918 3.918s-1.755 3.918-3.918 3.918h-7.836c-2.163 0-3.918-1.751-3.918-3.918s1.755-3.918 3.918-3.918zm7.836 19.589c2.163 0 3.918 1.751 3.918 3.918s-1.755 3.918-3.918 3.918h-43.096c-2.163 0-3.918-1.751-3.918-3.918s1.755-3.918 3.918-3.918zm-19.589-15.671c0 2.167-1.755 3.918-3.918 3.918h-27.425c-2.163 0-3.918-1.751-3.918-3.918s1.755-3.918 3.918-3.918h27.425c2.163 0 3.918 1.751 3.918 3.918zm-3.918-19.589c0 2.167-1.755 3.918-3.918 3.918h-43.096c-2.163 0-3.918-1.751-3.918-3.918s1.755-3.918 3.918-3.918h43.096c2.163 0 3.918 1.751 3.918 3.918zm-31.342 39.178c0 2.167-1.755 3.918-3.918 3.918h-27.425c-2.163 0-3.918-1.751-3.918-3.918s1.755-3.918 3.918-3.918h27.425c2.162 0 3.918 1.751 3.918 3.918zm-31.343-62.685h47.014c2.163 0 3.918 1.751 3.918 3.918s-1.755 3.918-3.918 3.918h-47.014c-2.163 0-3.918-1.751-3.918-3.918s1.756-3.918 3.918-3.918zm-27.424 0h11.753c2.163 0 3.918 1.751 3.918 3.918s-1.755 3.918-3.918 3.918h-11.753c-2.163 0-3.918-1.751-3.918-3.918s1.755-3.918 3.918-3.918zm0 19.589h27.425c2.163 0 3.918 1.751 3.918 3.918s-1.755 3.918-3.918 3.918h-27.425c-2.163 0-3.918-1.751-3.918-3.918s1.755-3.918 3.918-3.918zm0 19.589h47.013c2.163 0 3.918 1.751 3.918 3.918s-1.755 3.918-3.918 3.918h-47.013c-2.163 0-3.918-1.751-3.918-3.918s1.755-3.918 3.918-3.918zm0 19.589h11.753c2.163 0 3.918 1.751 3.918 3.918s-1.755 3.918-3.918 3.918h-11.753c-2.163 0-3.918-1.751-3.918-3.918s1.755-3.918 3.918-3.918zm0 19.589h58.767c2.163 0 3.918 1.751 3.918 3.918s-1.755 3.918-3.918 3.918h-58.767c-2.163 0-3.918-1.751-3.918-3.918s1.755-3.918 3.918-3.918zm0 19.589h27.425c2.163 0 3.918 1.751 3.918 3.918s-1.755 3.918-3.918 3.918h-27.425c-2.163 0-3.918-1.751-3.918-3.918s1.755-3.918 3.918-3.918zm0 19.589h50.931c2.163 0 3.918 1.751 3.918 3.918s-1.755 3.918-3.918 3.918h-50.931c-2.163 0-3.918-1.751-3.918-3.918s1.755-3.918 3.918-3.918zm0 19.589h27.425c2.163 0 3.918 1.751 3.918 3.918s-1.755 3.918-3.918 3.918h-27.425c-2.163 0-3.918-1.751-3.918-3.918s1.755-3.918 3.918-3.918zm0 19.589h47.013c2.163 0 3.918 1.751 3.918 3.918s-1.755 3.918-3.918 3.918h-47.013c-2.163 0-3.918-1.751-3.918-3.918s1.755-3.918 3.918-3.918z"/>
</svg>
